<?xml version="1.0" encoding="UTF-8" standalone="no"?>
<svg
   xmlns:dc="http://purl.org/dc/elements/1.1/"
   xmlns:cc="http://creativecommons.org/ns#"
   xmlns:rdf="http://www.w3.org/1999/02/22-rdf-syntax-ns#"
   xmlns:svg="http://www.w3.org/2000/svg"
   xmlns="http://www.w3.org/2000/svg"
   id="svg5707"
   version="1.1"
   viewBox="0 0 54.746166 64.17733"
   height="64.17733mm"
   width="54.746166mm">
  <defs
     id="defs5701" />
  <metadata
     id="metadata5704">
    <rdf:RDF>
      <cc:Work
         rdf:about="">
        <dc:format>image/svg+xml</dc:format>
        <dc:type
           rdf:resource="http://purl.org/dc/dcmitype/StillImage" />
        <dc:title></dc:title>
      </cc:Work>
    </rdf:RDF>
  </metadata>
  <g
     transform="translate(-3.7686786,-1.6893001)"
     id="layer1">
    <path
       id="path5690"
       d="M 9.6946615,65.580585 C 7.6833413,65.129735 6.4034909,64.460955 5.4298401,63.352028 4.149405,61.893693 3.7742867,60.775656 3.7687728,58.401232 c -0.0064,-2.754849 0.3020509,-3.414641 4.4524162,-9.524068 5.178245,-7.62249 10.991117,-16.752647 11.966577,-18.795656 1.547011,-3.24007 1.707579,-4.66344 1.621737,-14.376117 l -0.0763,-8.6333257 -1.018083,-2.149085 c -1.62778,-3.436097 -2.566659,-3.130631 9.885195,-3.21616 5.89163,-0.04047 10.979946,-0.0084 11.307368,0.07119 0.327422,0.07962 0.595312,0.28714 0.595312,0.461156 0,0.174014 -0.506015,1.332605 -1.124479,2.574646 l -1.124479,2.258256 v 9.1281247 c 0,10.008418 0.08636,10.728168 1.703353,14.196854 0.4177,0.896033 4.107056,6.632081 8.198565,12.746776 4.091506,6.114696 7.637798,11.57283 7.880643,12.129188 0.696558,1.595805 0.619919,4.926409 -0.149593,6.500955 -0.769762,1.575057 -2.277795,2.88226 -4.074146,3.531582 -1.313225,0.474684 -2.49963,0.504388 -22.025489,0.551471 -15.549322,0.03749 -20.996281,-0.03067 -22.0927085,-0.276434 z M 51.356086,61.154389 c 1.653069,-0.416248 2.656284,-1.551118 2.656284,-3.004879 0,-1.056928 -0.57518,-2.004875 -7.636838,-12.586186 -4.200263,-6.293745 -8.038134,-12.290243 -8.528605,-13.32555 -1.905125,-4.02141 -2.032873,-4.974421 -2.158643,-16.103729 L 35.575413,6.1460233 h -4.605999 -4.606003 v 9.2311887 c 0,10.159657 -0.185719,11.978578 -1.581949,15.493381 -0.992489,2.498447 -1.163177,2.77622 -9.275776,15.095223 -3.83327,5.820833 -7.0915126,11.032894 -7.2405392,11.582357 -0.448183,1.652469 0.6420803,3.171098 2.6201392,3.649591 1.347761,0.326025 39.16474,0.285494 40.4708,-0.04337 z M 12.325421,58.518451 c -1.058095,-1.058096 -0.711049,-1.771177 5.439032,-11.175715 l 5.820833,-8.901059 7.431509,-0.0083 7.431508,-0.0082 5.996096,8.995199 c 6.328217,9.493437 6.578286,10.001776 5.46693,11.113132 -0.518941,0.51894 -0.881944,0.529167 -18.785417,0.529167 -18.072011,0 -18.261744,-0.0055 -18.800491,-0.54424 z m 32.047051,-3.962985 c 0.29631,-0.158581 0.511773,-0.552172 0.511773,-0.934863 0,-0.712393 -3.48729,-6.132962 -4.09584,-6.366486 -0.567182,-0.217649 -1.46041,0.394065 -1.46041,1.000141 0,0.897244 3.828577,6.575099 4.433589,6.575099 0.05452,0 0.329414,-0.123251 0.610888,-0.273891 z m -5.056563,-8.575088 c 0.752544,-0.906759 -0.285361,-2.439638 -1.244684,-1.838272 -0.944124,0.591839 -0.604507,2.220585 0.46302,2.220585 0.255405,0 0.607153,-0.17204 0.781664,-0.382313 z"
       style="fill:#000000;stroke-width:0.26458332" />
  </g>
</svg>
