<?xml version="1.0" encoding="iso-8859-1"?>
<!-- Generator: Adobe Illustrator 19.0.0, SVG Export Plug-In . SVG Version: 6.00 Build 0)  -->
<svg version="1.1" id="Layer_1" xmlns="http://www.w3.org/2000/svg" xmlns:xlink="http://www.w3.org/1999/xlink" x="0px" y="0px"
	 viewBox="0 0 479.999 479.999" style="enable-background:new 0 0 479.999 479.999;" xml:space="preserve">
<g>
	<g>
		<path d="M407.699,268.344H258.633c-5.523,0-10,4.477-10,10s4.477,10,10,10h17.608c-6.965,5.063-14.978,8.369-23.8,9.745
			c-15.591,2.431-32.245-1.551-46.914-11.213c-14.225-9.353-23.95-23.682-27.386-40.347c-3.436-16.665-0.172-33.678,9.189-47.902
			c7.099-10.782,24.866-25.329,37.485-30.998l20.23,39.003c1.222,2.355,3.329,4.128,5.858,4.929
			c0.985,0.313,2.003,0.467,3.019,0.467c1.59,0,3.172-0.379,4.608-1.125l1.928-1.001l13.599,26.221
			c1.779,3.431,5.27,5.398,8.886,5.398c1.549,0,3.122-0.361,4.593-1.123l32.592-16.891c2.354-1.22,4.128-3.326,4.931-5.855
			c0.802-2.528,0.566-5.272-0.654-7.626l-13.614-26.259l4.448-2.309c4.899-2.544,6.811-8.578,4.269-13.479L256.22,45.949
			c-1.222-2.355-3.328-4.128-5.857-4.929c-2.53-0.802-5.272-0.565-7.628,0.658l-1.934,1.004L221.474,5.398
			c-1.221-2.356-3.329-4.13-5.858-4.931c-2.53-0.803-5.274-0.564-7.63,0.659l-32.591,16.932c-4.898,2.545-6.809,8.579-4.266,13.479
			l19.341,37.277l-4.449,2.31c-4.899,2.544-6.811,8.578-4.269,13.479l11.563,22.291c-24.402,10.138-44.908,27.116-59.54,49.374
			c-40.037,60.868-23.098,142.981,37.764,183.045c7.656,5.036,15.653,9.149,23.855,12.409v44.394H114.9
			c-3.343,0-6.465,1.67-8.319,4.452l-42.603,63.883c-2.047,3.069-2.237,7.014-0.498,10.266c1.74,3.252,5.129,5.282,8.817,5.282
			h323.07c3.757,0,7.197-2.106,8.906-5.452c1.708-3.346,1.397-7.368-0.806-10.411l-46.238-63.883
			c-1.881-2.598-4.893-4.137-8.1-4.137h-69.857v-39.858c29.876-8.206,57.012-26.85,75.342-54.694
			c0.063-0.095,0.123-0.19,0.183-0.288l7.896-12.933h45.008c5.522,0,10-4.477,10-10
			C417.699,272.821,413.222,268.344,407.699,268.344z M287.21,218.038l-8.55-16.486l14.829-7.707l8.557,16.505L287.21,218.038z
			 M297.152,168.312l-38.957,20.229l-22.26-42.914l38.811-20.516L297.152,168.312z M241.147,65.085
			c0.261-0.135,0.513-0.286,0.759-0.442l1.165-0.605l22.467,43.319l-38.813,20.516l-22.617-43.604l4.285-2.225
			c0.054-0.026,0.108-0.045,0.162-0.072L241.147,65.085z M208.325,23.489l14.726,28.41l-14.83,7.7l-14.736-28.401L208.325,23.489z
			 M344.024,416.117L375.784,460H90.986l29.264-43.883h85.144h63.879H344.024z M215.393,396.117v-35.029h43.879v35.029H215.393z
			 M337.817,290.707c-21.543,32.619-57.332,50.33-93.799,50.327c-21.15-0.001-42.536-5.962-61.486-18.427
			c-51.649-34.001-66.026-103.689-32.046-155.35c12.729-19.364,30.697-34.003,52.083-42.521l13.033,25.126
			c-16.042,7.56-35.971,24.087-44.977,37.768c-12.299,18.688-16.586,41.039-12.071,62.937c4.515,21.901,17.295,40.73,35.979,53.015
			c15.142,9.974,32.116,15.203,48.854,15.203c4.068,0,8.127-0.31,12.137-0.935c19.541-3.047,36.681-13.465,48.829-29.506h34.907
			L337.817,290.707z"/>
	</g>
</g>
<g>
</g>
<g>
</g>
<g>
</g>
<g>
</g>
<g>
</g>
<g>
</g>
<g>
</g>
<g>
</g>
<g>
</g>
<g>
</g>
<g>
</g>
<g>
</g>
<g>
</g>
<g>
</g>
<g>
</g>
</svg>
