<?xml version="1.0" encoding="UTF-8" standalone="no"?>
<!-- Created with Inkscape (http://www.inkscape.org/) -->

<svg
   xmlns:dc="http://purl.org/dc/elements/1.1/"
   xmlns:cc="http://creativecommons.org/ns#"
   xmlns:rdf="http://www.w3.org/1999/02/22-rdf-syntax-ns#"
   xmlns:svg="http://www.w3.org/2000/svg"
   xmlns="http://www.w3.org/2000/svg"
   xmlns:sodipodi="http://sodipodi.sourceforge.net/DTD/sodipodi-0.dtd"
   xmlns:inkscape="http://www.inkscape.org/namespaces/inkscape"
   width="236.98941"
   height="237.20906"
   viewBox="0 0 62.703446 62.761566"
   version="1.1"
   id="svg4570"
   inkscape:version="0.92.3 (2405546, 2018-03-11)"
   sodipodi:docname="Vial.svg">
  <defs
     id="defs4564" />
  <sodipodi:namedview
     id="base"
     pagecolor="#ffffff"
     bordercolor="#666666"
     borderopacity="1.0"
     inkscape:pageopacity="0.0"
     inkscape:pageshadow="2"
     inkscape:zoom="1.0705078"
     inkscape:cx="261.54791"
     inkscape:cy="226.49824"
     inkscape:document-units="mm"
     inkscape:current-layer="g4529"
     showgrid="false"
     units="px"
     fit-margin-top="0"
     fit-margin-left="0"
     fit-margin-right="0"
     fit-margin-bottom="0"
     inkscape:window-width="1920"
     inkscape:window-height="986"
     inkscape:window-x="-11"
     inkscape:window-y="-11"
     inkscape:window-maximized="1" />
  <metadata
     id="metadata4567">
    <rdf:RDF>
      <cc:Work
         rdf:about="">
        <dc:format>image/svg+xml</dc:format>
        <dc:type
           rdf:resource="http://purl.org/dc/dcmitype/StillImage" />
        <dc:title></dc:title>
      </cc:Work>
    </rdf:RDF>
  </metadata>
  <g
     inkscape:label="Layer 1"
     inkscape:groupmode="layer"
     id="layer1"
     transform="translate(4.6430764,-240.89171)">
    <g
       transform="matrix(0.26458333,0,0,0.26458333,14.214798,56.586662)"
       id="g4529">
      <path
         style="fill:#d0d0d0;fill-opacity:1;stroke-width:1"
         d="m 207.33333,251.52813 c -2.93334,-0.95108 -6.83334,-2.50458 -8.66667,-3.45219 -1.83333,-0.94761 -36.93333,-35.23448 -78,-76.19302 C 61.874792,113.24581 45.574782,97.6835 43.999999,98.685987 39.188194,101.74913 34.858335,100.08803 25.961975,91.76592 16.094304,82.535198 12.908453,77.490429 14.056958,72.914421 15.017536,69.087178 68.863704,15.26256 72.93336,14.061584 c 4.284414,-1.264354 9.318602,1.876842 18.733304,11.689071 8.468886,8.826481 10.184036,13.288517 7.014792,18.249344 -1.007154,1.576501 14.513664,17.810614 73.298074,76.666661 81.4895,81.58881 80.51273,80.42969 80.37382,95.37825 -0.0903,9.71979 -4.14764,18.15056 -12.49057,25.9544 -10.20824,9.54862 -21.90289,12.97432 -32.52945,9.52882 z m -7.24568,-35.57504 c 1.41845,-0.75914 2.57901,-2.37724 2.57901,-3.5958 0,-1.21855 -12.75,-15.01831 -28.33333,-30.66613 -28.79737,-28.91656 -31.42685,-30.82978 -34.85525,-25.36062 -1.25267,1.99832 2.7177,6.51242 27.85246,31.66667 16.12236,16.13486 29.50795,29.33612 29.74575,29.33612 0.23779,0 1.59291,-0.62111 3.01136,-1.38024 z M 116.68531,116.04255 126.83313,91.51149 108.08345,72.761813 89.333772,54.012136 71.676444,71.669465 l -17.657331,17.65733 25.9285,25.954095 c 14.260674,14.27476 26.077307,25.80529 26.259187,25.62341 0.18188,-0.18188 4.89721,-11.36966 10.47851,-24.86175 z m -74.270746,-31.107536 2.879404,-3.064985 -7.052844,-6.965234 -7.052843,-6.965234 -3.184688,3.389945 -3.184688,3.389945 6.540425,6.640274 c 3.597233,3.65215 6.90839,6.640273 7.358128,6.640273 0.449737,0 2.113436,-1.379243 3.697106,-3.064984 z M 56.94226,70.407757 60.05639,67.482182 53.744984,61.074424 c -3.471273,-3.524267 -6.990969,-6.407759 -7.821546,-6.407759 -0.830576,0 -2.612622,1.21823 -3.960099,2.707176 -2.405219,2.657736 -2.330769,2.828188 4.07656,9.333333 3.589586,3.644387 6.810406,6.626157 7.157376,6.626157 0.346969,0 2.032213,-1.316507 3.744985,-2.925574 z M 67.035078,46.400159 C 60.224006,39.589087 60.07393,39.519791 57.3915,41.947358 c -1.498659,1.356268 -2.724835,3.10234 -2.724835,3.880158 0,0.77782 2.831871,4.289321 6.293045,7.803335 l 6.293046,6.389117 3.350533,-3.350533 3.350533,-3.350534 z m 14.652347,-14.680986 -6.933064,-6.933064 -3.4074,3.201086 -3.4074,3.201086 6.992246,7.080195 6.992246,7.080195 3.348218,-3.348217 3.348217,-3.348219 z"
         id="path4545"
         inkscape:connector-curvature="0" />
      <path
         style="fill:#b9b9b9;fill-opacity:1;stroke-width:1"
         d="m 209.37305,251.80233 c -3.27816,-0.60327 -8.97816,-3.1873 -12.66667,-5.74228 -3.6885,-2.55498 -39.04917,-37.00858 -78.57924,-76.56353 C 51.606807,102.93428 46.028726,97.681166 43.225466,98.958416 38.220427,101.23886 34.48283,99.253002 24.127725,88.811391 9.4630564,74.024214 8.7069716,76.008921 41.584283,42.988298 56.479593,28.028059 70.045364,15.239533 71.730441,14.569352 c 4.684637,-1.863154 10.6033,1.346116 19.201369,10.411539 8.084389,8.523821 10.24322,13.3881 8.034813,18.104032 -1.246949,2.662789 5.079187,9.377146 73.096027,77.581737 56.55544,56.71156 75.11252,76.1095 77.16994,80.66667 6.10531,13.52312 2.21856,30.08778 -9.60724,40.9445 -9.47586,8.69935 -18.79425,11.63311 -30.2523,9.5245 z m -9.2854,-35.84924 c 1.41845,-0.75914 2.57901,-2.41438 2.57901,-3.67831 0,-1.26392 -12.81544,-15.10309 -28.47876,-30.7537 -28.85322,-28.82982 -31.29502,-30.60228 -34.70308,-25.19054 -1.25977,2.00042 2.68462,6.48606 27.84572,31.66667 16.12236,16.13486 29.50795,29.33612 29.74575,29.33612 0.23779,0 1.59291,-0.62111 3.01136,-1.38024 z M 117.32452,114.78636 126.89436,91.572719 108.11406,72.792428 89.333772,54.012136 71.676444,71.669465 54.019113,89.326795 79.970979,115.30428 c 16.807265,16.82386 26.274611,25.39929 26.867781,24.33661 0.50376,-0.90249 5.22235,-12.08703 10.48576,-24.85453 z m -74.909956,-29.851346 2.879404,-3.064985 -7.052844,-6.965234 -7.052843,-6.965234 -3.184688,3.389945 -3.184688,3.389945 6.540425,6.640274 c 3.597233,3.65215 6.90839,6.640273 7.358128,6.640273 0.449737,0 2.113436,-1.379243 3.697106,-3.064984 z m 14.666667,-14.666666 2.879404,-3.064986 -7.052844,-6.965233 -7.052844,-6.965234 -3.184688,3.389945 -3.184688,3.389945 6.540425,6.640273 c 3.597233,3.652151 6.908391,6.640273 7.358128,6.640273 0.449737,0 2.113436,-1.379242 3.697107,-3.064983 z M 68.402752,46.398723 c -3.46638,-3.519299 -6.886394,-6.398724 -7.60003,-6.398724 -0.713636,0 -2.699789,1.317364 -4.413674,2.927475 l -3.116153,2.927473 6.971345,7.059032 6.971345,7.059032 3.744837,-3.587783 3.744837,-3.587781 z m 13.284673,-14.67955 -6.933064,-6.933064 -3.4074,3.201086 -3.4074,3.201086 6.992246,7.080195 6.992246,7.080195 3.348218,-3.348217 3.348217,-3.348219 z"
         id="path4543"
         inkscape:connector-curvature="0" />
      <path
         style="fill:#a3a3a3;fill-opacity:1;stroke-width:1"
         d="m 201.33333,249.10829 c -4.34757,-2.0938 -26.61265,-23.42723 -80.845,-77.46215 C 52.683745,104.08838 45.386158,97.211236 42.909323,98.536798 37.968278,101.18116 35.811396,100.11447 25.180217,89.768779 9.2527946,74.269074 8.5088223,76.32835 42.291434,42.405835 76.135785,8.4213266 74.158177,9.1388374 89.768779,25.180217 100.11765,35.81467 101.18153,37.967591 98.53312,42.916195 c -1.330496,2.486053 5.46894,9.698929 73.1322,77.579005 55.61338,55.7916 75.32894,76.38745 77.46687,80.92575 3.66954,7.78952 3.80204,19.72599 0.3045,27.42839 -8.68843,19.13387 -30.96172,28.51437 -48.10336,20.25895 z m -0.26667,-33.37496 c 0.88,-0.88 1.6,-2.52488 1.6,-3.6553 0,-2.76481 -56.05652,-58.7447 -58.8251,-58.7447 -3.05044,0 -5.54414,3.40283 -4.62226,6.30739 1.1014,3.47022 55.85067,57.69261 58.2532,57.69261 1.09679,0 2.71416,-0.72 3.59416,-1.6 z m -83.06607,-102.228 8.99838,-21.827994 -18.8326,-18.8326 -18.832598,-18.8326 -17.657328,17.657329 -17.657331,17.65733 25.96159,25.987225 c 24.675247,24.6996 26.037397,25.83936 27.491547,23.00327 0.84148,-1.64119 5.57924,-12.80656 10.52834,-24.81196 z M 38.666666,75.333331 31.409278,67.98466 l -3.333333,3.333333 -3.333334,3.333333 7.257388,7.348672 7.257388,7.348672 3.333333,-3.333333 3.333334,-3.333334 z M 57.360324,71.3046 60.518821,67.942534 53.324395,60.657614 46.129968,53.372696 43.064983,56.2521 c -1.685741,1.583671 -3.064984,3.504205 -3.064984,4.267852 0,1.470962 11.992456,14.146713 13.384125,14.146713 0.449737,0 2.239028,-1.512929 3.9762,-3.362065 z m 14.66447,-14.664328 3.156299,-3.359727 -6.540425,-6.640273 c -3.597234,-3.65215 -7.12431,-6.640273 -7.837946,-6.640273 -0.713636,0 -2.699789,1.317364 -4.413674,2.927475 l -3.116153,2.927473 6.984671,7.072526 c 3.84157,3.88989 7.350579,7.072525 7.7978,7.072525 0.44722,0 2.233463,-1.511877 3.969428,-3.359726 z m 14.389769,-14.371924 2.879404,-3.064985 -7.284918,-7.194426 -7.28492,-7.194427 -3.392284,3.186885 -3.392284,3.186886 6.984672,7.072526 c 3.841569,3.889889 7.350578,7.072525 7.7978,7.072525 0.44722,0 2.10886,-1.379242 3.69253,-3.064984 z"
         id="path4541"
         inkscape:connector-curvature="0" />
      <path
         style="fill:#8c8c8c;fill-opacity:1;stroke-width:1"
         d="M 202.66666,249.24987 C 198.08133,247.19293 179.00202,228.9075 121.7456,171.69585 48.518757,98.526263 46.745949,96.869167 43.349528,98.41668 c -1.911252,0.870824 -4.415674,1.583317 -5.565382,1.583317 -1.149708,0 -6.821476,-4.604047 -12.603929,-10.231218 C 9.211254,74.228649 8.4731509,76.264102 42.368627,42.368627 76.264102,8.4731509 74.228649,9.211254 89.768779,25.180217 c 10.345691,10.631179 11.412381,12.788061 8.768019,17.729106 -1.325556,2.476824 5.551462,9.774717 73.104932,77.579007 50.14469,50.33088 75.38302,76.59184 77.05609,80.17833 3.76297,8.06656 4.17455,20.30995 0.92937,27.64621 -8.49785,19.2108 -29.71824,28.67175 -46.96053,20.937 z m -1.6,-33.51654 c 0.88,-0.88 1.6,-2.53523 1.6,-3.6783 0,-1.14306 -12.80884,-14.87674 -28.46408,-30.51927 -23.4346,-23.41559 -29.02996,-28.36102 -31.66666,-27.98838 -2.19304,0.30994 -3.34443,1.45575 -3.65254,3.63486 -0.36914,2.61072 4.66564,8.29782 28.03448,31.66666 15.66644,15.66643 29.39892,28.48443 30.51662,28.48443 1.1177,0 2.75218,-0.72 3.63218,-1.6 z M 117.13055,116 c 5.25717,-12.83334 9.55345,-23.941374 9.5473,-24.684532 -0.006,-0.743158 -8.26924,-9.593442 -18.36241,-19.667299 L 89.964212,53.332065 71.997781,71.335553 54.031349,89.339042 79.975942,115.30925 c 14.269526,14.28361 26.316188,25.53233 26.770368,24.99715 0.45417,-0.53519 5.12708,-11.47307 10.38424,-24.3064 z M 38.666666,75.333331 31.409278,67.98466 l -3.333333,3.333333 -3.333334,3.333333 7.257388,7.348672 7.257388,7.348672 3.333333,-3.333333 3.333334,-3.333334 z m 18.693658,-4.028731 3.158497,-3.362066 -7.200537,-7.291106 -7.200538,-7.291108 -3.746828,3.589689 -3.746828,3.589689 6.975741,7.063484 c 3.836657,3.884915 7.341648,7.063483 7.788869,7.063483 0.44722,0 2.234452,-1.512929 3.971624,-3.362065 z m 14.666666,-14.666667 3.158497,-3.362065 -7.200537,-7.291106 -7.200538,-7.291108 -3.746828,3.589689 -3.746828,3.589689 6.975741,7.063484 c 3.836657,3.884915 7.341648,7.063482 7.788869,7.063482 0.44722,0 2.234452,-1.512929 3.971624,-3.362065 z m 14.387573,-14.369585 2.879404,-3.064985 -7.284918,-7.194426 -7.28492,-7.194427 -3.392284,3.186885 -3.392284,3.186886 6.984672,7.072526 c 3.841569,3.889889 7.350578,7.072525 7.7978,7.072525 0.44722,0 2.10886,-1.379242 3.69253,-3.064984 z"
         id="path4539"
         inkscape:connector-curvature="0" />
      <path
         style="fill:#767676;fill-opacity:1;stroke-width:1"
         d="M 202.66666,249.24987 C 198.08133,247.19293 179.00202,228.9075 121.7456,171.69585 47.850499,97.858526 46.775707,96.855608 43.259054,98.457903 37.966886,100.86918 34.989982,99.365203 24.333333,88.89637 9.4151735,74.241133 8.7309502,76.006302 42.368627,42.368627 76.264102,8.4731509 74.228649,9.211254 89.768779,25.180217 c 5.627171,5.782453 10.231218,11.454221 10.231218,12.603929 0,1.149708 -0.710887,3.650608 -1.579751,5.557556 -1.542668,3.385786 0.190685,5.241766 73.839014,79.062738 83.68503,83.88118 80.82308,80.41045 79.38487,96.27129 -2.16156,23.83808 -28.01563,39.97745 -48.97747,30.57414 z m -1.6,-33.51654 c 0.88,-0.88 1.6,-2.53523 1.6,-3.6783 0,-1.14306 -12.80884,-14.87674 -28.46408,-30.51927 -23.4346,-23.41559 -29.02996,-28.36102 -31.66666,-27.98838 -2.27135,0.321 -3.31443,1.42187 -3.58722,3.78595 -0.31969,2.77068 4.41862,8.11595 28.07088,31.66667 15.65054,15.58333 29.35362,28.33333 30.4513,28.33333 1.09768,0 2.71578,-0.72 3.59578,-1.6 z m -84.23174,-98.98211 c 5.40746,-13.0918 9.83174,-24.458798 9.83174,-25.259992 0,-0.801193 -8.24209,-9.714617 -18.31577,-19.807607 L 90.035119,53.332727 71.681546,71.651174 53.327973,89.96962 78.987699,115.65468 c 14.112849,14.12678 26.189771,25.50838 26.837601,25.29244 0.64784,-0.21595 5.60216,-11.1041 11.00962,-24.1959 z M 45.333332,82.05079 c 0,-0.816404 -3.004493,-4.443685 -6.676652,-8.060627 l -6.67665,-6.576255 -3.618709,3.618709 -3.61871,3.618709 7.230376,7.32132 7.230376,7.321321 3.064985,-2.879404 c 1.685742,-1.58367 3.064984,-3.547369 3.064984,-4.363773 z m 12.026992,-10.74619 3.158497,-3.362066 -7.200537,-7.291106 -7.200538,-7.291108 -3.746828,3.589689 -3.746828,3.589689 6.975741,7.063484 c 3.836657,3.884915 7.341648,7.063483 7.788869,7.063483 0.44722,0 2.234452,-1.512929 3.971624,-3.362065 z m 14.666666,-14.666667 3.158497,-3.362065 -7.200537,-7.291106 -7.200538,-7.291108 -3.746828,3.589689 -3.746828,3.589689 6.975741,7.063484 c 3.836657,3.884915 7.341648,7.063482 7.788869,7.063482 0.44722,0 2.234452,-1.512929 3.971624,-3.362065 z m 14.387573,-14.369585 2.879404,-3.064985 -7.284918,-7.194426 -7.28492,-7.194427 -3.392284,3.186885 -3.392284,3.186886 6.984672,7.072526 c 3.841569,3.889889 7.350578,7.072525 7.7978,7.072525 0.44722,0 2.10886,-1.379242 3.69253,-3.064984 z"
         id="path4537"
         inkscape:connector-curvature="0" />
      <path
         style="fill:#606060;fill-opacity:1;stroke-width:1"
         d="m 202.66666,249.32563 c -4.48272,-2.0805 -24.93086,-21.69565 -80.86134,-77.56726 L 46.943981,96.975791 42.755435,98.435926 C 36.828986,100.5019 33.975099,98.982743 23.666666,88.274772 9.7982498,73.868838 9.0625474,75.674706 42.368627,42.368627 75.674706,9.0625474 73.868838,9.7982498 88.274772,23.666666 98.986444,33.978662 100.50217,36.82821 98.432954,42.763962 l -1.463107,4.197071 74.794243,74.852817 c 57.15733,57.20209 75.42892,76.26765 77.48578,80.85281 6.93603,15.46177 -0.48126,35.30079 -16.76612,44.84435 -8.39956,4.92246 -21.41422,5.71452 -29.81709,1.81462 z m -1.6,-33.5923 c 0.88,-0.88 1.6,-2.53523 1.6,-3.6783 0,-1.14306 -12.80884,-14.87674 -28.46408,-30.51927 -23.4346,-23.41559 -29.02996,-28.36102 -31.66666,-27.98838 -2.19974,0.31088 -3.34432,1.45547 -3.6552,3.6552 -0.37264,2.63671 4.57278,8.23207 27.98837,31.66667 15.64253,15.65524 29.37621,28.46408 30.51928,28.46408 1.14307,0 2.79829,-0.72 3.67829,-1.6 z m -83.87631,-99.43074 c 5.21197,-12.66691 9.47631,-23.774951 9.47631,-24.684532 0,-0.909583 -8.40265,-10.040363 -18.67257,-20.290622 L 89.321518,52.6906 71.003374,71.008744 52.685231,89.326887 79.304153,115.97079 c 17.09131,17.10735 26.939437,26.05666 27.514397,25.00322 0.49252,-0.90237 5.15982,-12.00451 10.3718,-24.67142 z M 45.333332,82.05079 c 0,-0.816404 -3.004493,-4.443685 -6.676652,-8.060627 l -6.67665,-6.576255 -3.618709,3.618709 -3.61871,3.618709 7.230376,7.32132 7.230376,7.321321 3.064985,-2.879404 c 1.685742,-1.58367 3.064984,-3.547369 3.064984,-4.363773 z m 12.026992,-10.74619 3.158497,-3.362066 -7.200537,-7.291106 -7.200538,-7.291108 -3.746828,3.589689 -3.746828,3.589689 6.975741,7.063484 c 3.836657,3.884915 7.341648,7.063483 7.788869,7.063483 0.44722,0 2.234452,-1.512929 3.971624,-3.362065 z m 14.666666,-14.666667 3.158497,-3.362065 -7.200537,-7.291106 -7.200538,-7.291108 -3.746828,3.589689 -3.746828,3.589689 6.975741,7.063484 c 3.836657,3.884915 7.341648,7.063482 7.788869,7.063482 0.44722,0 2.234452,-1.512929 3.971624,-3.362065 z m 14.666666,-14.666666 3.158498,-3.362065 -7.223755,-7.314616 -7.223756,-7.314617 -3.997681,3.997682 -3.997681,3.997682 6.578569,6.678999 c 3.618213,3.67345 7.246536,6.679 8.06294,6.679 0.816404,0 2.905695,-1.512929 4.642866,-3.362065 z"
         id="path4535"
         inkscape:connector-curvature="0" />
      <path
         style="fill:#494949;fill-opacity:1;stroke-width:1"
         d="m 204.66666,249.96154 c -2.93333,-1.05676 -5.61098,-1.93043 -5.95033,-1.94147 -0.33936,-0.0107 -34.91475,-34.2835 -76.83421,-76.16101 C 76.844842,126.86685 45.292174,96.321238 44.75377,97.192395 c -0.501132,0.810848 -3.17434,1.474269 -5.940462,1.474269 -4.501457,0 -6.032545,-1.03464 -14.587977,-9.857893 C 9.7153536,73.844566 8.9170991,75.882899 42.399999,42.399999 75.864617,8.9353808 73.855875,9.7263198 88.736364,24.155123 c 10.17068,9.861957 11.537226,12.600989 9.471207,18.983533 -1.199921,3.706905 0.700453,5.741516 73.476509,78.666664 41.08955,41.17374 75.74895,76.93424 77.02089,79.46775 1.27193,2.53354 2.59509,8.23354 2.94034,12.66667 0.56138,7.2082 0.15315,8.97207 -3.86169,16.68576 -9.01391,17.31839 -26.7008,25.25017 -43.11696,19.33604 z m -3.6,-34.22821 c 0.88,-0.88 1.6,-2.54803 1.6,-3.70674 0,-1.1587 -13.13649,-15.19379 -29.19222,-31.1891 -26.60643,-26.50631 -29.44092,-28.94925 -32,-27.57968 -6.02403,3.22396 -3.66366,6.52955 25.51393,35.73081 15.57693,15.58959 29.25693,28.34471 30.4,28.34471 1.14307,0 2.79829,-0.72 3.67829,-1.6 z M 119.37902,111.16234 127.69196,90.991352 108.50705,71.840668 89.322135,52.689983 71.003684,71.008434 52.685231,89.326887 79.342614,116.03853 106,142.75018 l 2.53304,-5.70842 c 1.39317,-3.13964 6.27386,-14.78538 10.84598,-25.87942 z m -76.308637,-25.554549 3.569295,-3.72554 -7.300139,-7.209457 -7.300137,-7.209456 -4.040989,3.871514 -4.04099,3.871513 6.975742,7.063484 c 3.836657,3.884914 7.333982,7.063482 7.771833,7.063482 0.43785,0 2.402273,-1.676493 4.365385,-3.72554 z M 57.360324,71.3046 l 3.158497,-3.362066 -7.200537,-7.291106 -7.200538,-7.291108 -3.746828,3.589689 -3.746828,3.589689 6.975741,7.063484 c 3.836657,3.884915 7.341648,7.063483 7.788869,7.063483 0.44722,0 2.234452,-1.512929 3.971624,-3.362065 z m 14.666666,-14.666667 3.158497,-3.362065 -7.200537,-7.291106 -7.200538,-7.291108 -3.746828,3.589689 -3.746828,3.589689 6.975741,7.063484 c 3.836657,3.884915 7.341648,7.063482 7.788869,7.063482 0.44722,0 2.234452,-1.512929 3.971624,-3.362065 z m 14.666666,-14.666666 3.158498,-3.362065 -7.223755,-7.314616 -7.223756,-7.314617 -3.997681,3.997682 -3.997681,3.997682 6.578569,6.678999 c 3.618213,3.67345 7.246536,6.679 8.06294,6.679 0.816404,0 2.905695,-1.512929 4.642866,-3.362065 z"
         id="path4533"
         inkscape:connector-curvature="0" />
      <path
         style="fill:#000000;fill-opacity:1;stroke-width:1"
         d="m 118.05947,931.65356 c -5.14563,-1.76261 -16.84578,-12.87441 -82.167533,-78.03566 -45.0179589,-44.90736 -76.540166,-75.37749 -77.07869,-74.50614 -0.501132,0.81085 -3.082191,1.47427 -5.735686,1.47427 -4.2157,0 -6.056643,-1.23211 -14.587977,-9.76344 -7.695349,-7.69535 -9.763441,-10.59269 -9.763441,-13.6783 0,-3.31998 4.307067,-8.21842 28.344701,-32.23655 23.628194,-23.60903 28.976582,-28.32171 32.142106,-28.32171 2.9044691,0 6.1154221,2.24766 13.6552981,9.55867 8.8232529,8.55543 9.8578929,10.08652 9.8578929,14.58797 0,2.76613 -0.663421,5.43933 -1.474269,5.94047 -0.871347,0.53852 29.600155,32.06098 74.508895,77.07869 71.659573,71.83346 76.115343,76.57578 78.306013,83.34189 5.38107,16.62008 -2.7344,34.31692 -19.60261,42.74607 -9.26868,4.63161 -16.69026,5.14141 -26.4047,1.81377 z m -1.62536,-36.40086 c 0.31092,-2.76644 -4.59057,-8.28962 -28.820743,-32.47619 -26.77472,-26.72654 -29.43133,-29.01656 -32.04131,-27.61974 -6.06538,3.24609 -3.74229,6.50849 25.48742,35.79262 23.495783,23.53953 28.902453,28.32212 31.666663,28.01137 2.44153,-0.27448 3.43356,-1.26653 3.70797,-3.70806 z M 31.521277,798.24305 41.852657,773.2527 22.622937,753.92522 3.3932191,734.59774 -14.931037,752.922 l -18.324255,18.32425 26.5956001,26.62057 c 14.62758,14.64131 26.8777489,26.33841 27.2225889,25.99356 0.34485,-0.34484 5.27612,-11.87264 10.95838,-25.61733 z m -74.391417,-30.71589 3.569295,-3.72554 -7.300139,-7.20946 -7.300137,-7.20946 -4.040989,3.87152 -4.04099,3.87151 6.975742,7.06349 c 3.836657,3.88491 7.333982,7.06348 7.771833,7.06348 0.43785,0 2.402273,-1.6765 4.365385,-3.72554 z m 14.289941,-14.30319 3.158497,-3.36207 -7.200537,-7.29111 -7.200538,-7.2911 -3.746828,3.58969 -3.746828,3.58968 6.975741,7.06349 c 3.836657,3.88491 7.341648,7.06348 7.788869,7.06348 0.44722,0 2.234452,-1.51293 3.971624,-3.36206 z m 14.666666,-14.66667 3.158497,-3.36207 -7.200537,-7.2911 -7.200538,-7.29111 -3.746828,3.58969 -3.746828,3.58969 6.975741,7.06348 c 3.836657,3.88492 7.341648,7.06348 7.788869,7.06348 0.44722,0 2.234452,-1.51292 3.971624,-3.36206 z m 10.6396751,-25.3046 -7.2620221,-7.35336 -3.999999,4 -4,4 7.262021,7.35336 7.2620211,7.35336 4.00000001,-4 3.99999999,-4 z"
         id="path4531"
         inkscape:connector-curvature="0" />
    </g>
  </g>
</svg>
